<?xml version="1.0" standalone="no"?>
<!DOCTYPE svg PUBLIC "-//W3C//DTD SVG 20010904//EN"
 "http://www.w3.org/TR/2001/REC-SVG-20010904/DTD/svg10.dtd">
<svg version="1.0" xmlns="http://www.w3.org/2000/svg"
 width="512.000000pt" height="512.000000pt" viewBox="0 0 512.000000 512.000000"
 preserveAspectRatio="xMidYMid meet">
<metadata>
Created by potrace 1.11, written by Peter Selinger 2001-2013
</metadata>
<g transform="translate(0.000000,512.000000) scale(0.100000,-0.100000)"
fill="#000000" stroke="none">
<path d="M970 1556 l0 -496 120 0 120 0 0 185 0 185 88 0 c261 1 403 98 419
289 12 142 -54 251 -183 302 -55 21 -75 23 -311 27 l-253 4 0 -496z m460 272
c36 -25 52 -64 44 -107 -14 -66 -63 -91 -179 -91 l-85 0 0 110 0 110 94 0 c80
0 98 -3 126 -22z"/>
<path d="M1760 2043 c0 -5 62 -226 138 -493 l137 -485 122 -3 c109 -2 122 -1
127 15 3 10 44 153 91 318 48 165 90 305 94 312 3 7 49 -135 101 -315 l95
-327 121 -3 121 -3 121 428 c67 235 130 458 141 496 l20 67 -127 0 -127 0 -69
-287 c-37 -157 -73 -304 -80 -325 -11 -39 -13 -34 -85 239 -41 153 -80 300
-88 326 l-14 48 -126 -3 -126 -3 -83 -310 c-46 -170 -85 -317 -87 -325 -3 -14
-27 79 -122 483 l-37 157 -129 0 c-71 0 -129 -3 -129 -7z"/>
<path d="M3506 2041 c-9 -13 -398 -943 -403 -963 -5 -17 6 -18 125 -18 l129 0
35 93 35 92 191 3 190 2 38 -95 37 -95 135 0 c77 0 132 4 130 9 -1 5 -93 228
-203 495 l-200 486 -117 0 c-64 0 -119 -4 -122 -9z m188 -463 l45 -128 -119 0
-119 0 19 53 c40 113 91 251 97 260 4 6 12 -5 19 -24 6 -19 32 -91 58 -161z"/>
</g>
</svg>
